<?xml version="1.0" encoding="UTF-8"?>
<svg width="1080" height="1080" viewBox="0 0 1080 1080" xmlns="http://www.w3.org/2000/svg">
  
  <defs>
    <radialGradient id="bg" cx="62%" cy="20%" r="92%">
      <stop offset="0%" stop-color="#1e3a2a"/>
      <stop offset="46%" stop-color="#07110f"/>
      <stop offset="100%" stop-color="#020504"/>
    </radialGradient>
    <linearGradient id="lime" x1="0" y1="0" x2="1" y2="1">
      <stop stop-color="#e4ff7a"/>
      <stop offset="1" stop-color="#63e6a4"/>
    </linearGradient>
    <linearGradient id="glass" x1="0" y1="0" x2="1" y2="1">
      <stop stop-color="#12261f" stop-opacity="0.96"/>
      <stop offset="1" stop-color="#06100d" stop-opacity="0.98"/>
    </linearGradient>
    <filter id="softShadow" x="-30%" y="-30%" width="160%" height="160%">
      <feDropShadow dx="0" dy="26" stdDeviation="36" flood-color="#000000" flood-opacity="0.5"/>
    </filter>
    <filter id="glow" x="-60%" y="-60%" width="220%" height="220%">
      <feGaussianBlur stdDeviation="12" result="blur"/>
      <feMerge>
        <feMergeNode in="blur"/>
        <feMergeNode in="SourceGraphic"/>
      </feMerge>
    </filter>
  </defs>
  <rect width="1080" height="1080" fill="url(#bg)"/>
  <circle cx="820" cy="120" r="360" fill="#c8ff61" opacity="0.07"/>
  <circle cx="140" cy="920" r="280" fill="#63e6a4" opacity="0.08"/>
  
  <g opacity="0.38">
    <line x1="237.6" y1="302.40000000000003" x2="410.4" y2="216" stroke="#7cffac" stroke-width="2.3" opacity="0.45"/><line x1="410.4" y1="216" x2="626.4" y2="280.8" stroke="#7cffac" stroke-width="2.3" opacity="0.45"/><line x1="626.4" y1="280.8" x2="820.8" y2="194.4" stroke="#7cffac" stroke-width="2.3" opacity="0.45"/><line x1="237.6" y1="302.40000000000003" x2="280.8" y2="518.4" stroke="#7cffac" stroke-width="2.3" opacity="0.45"/><line x1="280.8" y1="518.4" x2="540" y2="475.2" stroke="#7cffac" stroke-width="2.3" opacity="0.45"/><line x1="540" y1="475.2" x2="777.6" y2="561.6" stroke="#7cffac" stroke-width="2.3" opacity="0.45"/><line x1="540" y1="475.2" x2="432" y2="712.8000000000001" stroke="#7cffac" stroke-width="2.3" opacity="0.45"/><line x1="777.6" y1="561.6" x2="712.8000000000001" y2="777.6" stroke="#7cffac" stroke-width="2.3" opacity="0.45"/><line x1="432" y1="712.8000000000001" x2="712.8000000000001" y2="777.6" stroke="#7cffac" stroke-width="2.3" opacity="0.45"/><line x1="626.4" y1="280.8" x2="540" y2="475.2" stroke="#7cffac" stroke-width="2.3" opacity="0.45"/>
    <circle cx="237.6" cy="302.40000000000003" r="8.049999999999999" fill="#63e6a4" opacity="0.9"/><circle cx="410.4" cy="216" r="5.75" fill="#c8ff61" opacity="0.9"/><circle cx="626.4" cy="280.8" r="5.75" fill="#63e6a4" opacity="0.9"/><circle cx="820.8" cy="194.4" r="8.049999999999999" fill="#c8ff61" opacity="0.9"/><circle cx="280.8" cy="518.4" r="5.75" fill="#63e6a4" opacity="0.9"/><circle cx="540" cy="475.2" r="5.75" fill="#c8ff61" opacity="0.9"/><circle cx="777.6" cy="561.6" r="8.049999999999999" fill="#63e6a4" opacity="0.9"/><circle cx="432" cy="712.8000000000001" r="5.75" fill="#c8ff61" opacity="0.9"/><circle cx="712.8000000000001" cy="777.6" r="5.75" fill="#63e6a4" opacity="0.9"/>
  </g>
  <g filter="url(#softShadow)">
    <circle cx="540" cy="405" r="230" fill="url(#glass)" stroke="#325948" stroke-width="6"/>
    <circle cx="540" cy="405" r="174" fill="none" stroke="#c8ff61" stroke-width="17" opacity="0.95"/>
    <line x1="674" y1="548" x2="790" y2="664" stroke="#c8ff61" stroke-width="34" stroke-linecap="round"/>
    <line x1="674" y1="548" x2="790" y2="664" stroke="#63e6a4" stroke-width="13" stroke-linecap="round" opacity="0.85"/>
    <text x="540" y="374" text-anchor="middle" font-family="Segoe UI, Arial, sans-serif" font-size="70" font-weight="900" fill="#f1f6ef">www</text>
    <text x="540" y="452" text-anchor="middle" font-family="Segoe UI, Arial, sans-serif" font-size="88" font-weight="900" fill="url(#lime)">.AI</text>
    <g><rect x="344" y="498" width="109.6" height="48.6" rx="24.3" fill="#14251f" stroke="#315344" stroke-width="2"/>
      <text x="398.8" y="530.4" text-anchor="middle" font-family="Segoe UI, Arial, sans-serif" font-size="27" font-weight="800" fill="#c8ff61">.com</text><rect x="467.6" y="498" width="90.69999999999999" height="48.6" rx="24.3" fill="#14251f" stroke="#315344" stroke-width="2"/>
      <text x="512.95" y="530.4" text-anchor="middle" font-family="Segoe UI, Arial, sans-serif" font-size="27" font-weight="800" fill="#c8ff61">.io</text><rect x="572.3" y="498" width="109.6" height="48.6" rx="24.3" fill="#14251f" stroke="#315344" stroke-width="2"/>
      <text x="627.0999999999999" y="530.4" text-anchor="middle" font-family="Segoe UI, Arial, sans-serif" font-size="27" font-weight="800" fill="#c8ff61">.xyz</text></g>
  </g>
</svg>